<svg width="128" height="128" viewBox="0 0 128 128" fill="none" xmlns="http://www.w3.org/2000/svg">
  <rect width="128" height="128" rx="32" fill="#FFFFFF"/>
  <rect x="20" y="20" width="88" height="88" rx="28" fill="#1A73E8"/>
  <path d="M64 36C66.7614 36 69 38.2386 69 41V59H87C89.7614 59 92 61.2386 92 64C92 66.7614 89.7614 69 87 69H69V87C69 89.7614 66.7614 92 64 92C61.2386 92 59 89.7614 59 87V69H41C38.2386 69 36 66.7614 36 64C36 61.2386 38.2386 59 41 59H59V41C59 38.2386 61.2386 36 64 36Z" fill="#FFFFFF"/>
  <circle cx="92" cy="36" r="10" fill="#00897B"/>
</svg>
