<svg xmlns="http://www.w3.org/2000/svg" viewBox="0 0 64 64" role="img" aria-labelledby="title">
  <title>MediRDV</title>
  <defs>
    <linearGradient id="medirdv-gradient" x1="0%" y1="0%" x2="100%" y2="100%">
      <stop offset="0%" stop-color="#1A73E8" />
      <stop offset="100%" stop-color="#0D47A1" />
    </linearGradient>
  </defs>
  <rect width="64" height="64" rx="18" fill="url(#medirdv-gradient)" />
  <path
    d="M28 14c0-1.1.9-2 2-2h4c1.1 0 2 .9 2 2v12h12c1.1 0 2 .9 2 2v4c0 1.1-.9 2-2 2H36v12c0 1.1-.9 2-2 2h-4c-1.1 0-2-.9-2-2V34H16c-1.1 0-2-.9-2-2v-4c0-1.1.9-2 2-2h12V14Z"
    fill="#FFF"
  />
</svg>
